<?xml version="1.0" standalone="no"?>
<!DOCTYPE svg PUBLIC "-//W3C//DTD SVG 20010904//EN"
 "http://www.w3.org/TR/2001/REC-SVG-20010904/DTD/svg10.dtd">
<svg version="1.0" xmlns="http://www.w3.org/2000/svg"
 width="601.000000pt" height="134.000000pt" viewBox="0 0 601.000000 134.000000"
 preserveAspectRatio="xMidYMid meet">

<g transform="translate(0.000000,134.000000) scale(0.100000,-0.100000)"
fill="#000000" stroke="none">
<path d="M385 1296 c-82 -18 -162 -35 -177 -39 -30 -8 -38 -25 -142 -335 l-65
-193 22 -23 c12 -12 110 -75 217 -139 l195 -116 195 19 c118 12 199 25 206 33
7 6 17 28 22 47 5 19 37 126 71 236 64 210 69 240 49 266 -11 13 -218 161
-353 251 -22 15 -51 27 -65 26 -14 0 -92 -15 -175 -33z m93 -60 c4 -30 -39
-86 -64 -86 -36 0 -17 86 23 109 26 15 38 8 41 -23z m-228 -45 c0 -31 -40 -81
-65 -81 -25 0 -19 57 10 85 33 34 55 32 55 -4z m494 -237 c22 -22 20 -67 -4
-89 -19 -17 -21 -17 -39 -1 -20 18 -20 18 2 62 11 24 22 44 23 44 2 0 10 -7
18 -16z m-368 -19 c14 -36 -48 -118 -76 -100 -18 11 -11 53 16 84 28 34 51 40
60 16z m-228 -51 c3 -24 -42 -84 -63 -84 -34 0 -30 56 7 90 27 25 52 22 56 -6z"/>
<path d="M2200 1033 c-29 -10 -40 -37 -40 -94 0 -43 4 -58 16 -63 26 -10 31
-7 37 23 4 20 13 30 31 33 23 5 26 2 26 -23 0 -32 36 -51 52 -28 7 11 11 11
15 2 2 -7 16 -13 29 -13 21 0 24 3 18 26 l-7 26 26 -26 c30 -30 80 -35 114
-11 18 13 22 13 33 0 7 -8 28 -15 47 -15 26 0 36 5 43 23 6 15 9 17 9 6 2 -32
80 -40 119 -13 20 14 24 14 44 0 12 -9 28 -16 35 -16 15 0 18 46 3 55 -5 3
-10 25 -10 48 0 39 1 40 14 21 8 -11 16 -43 18 -70 3 -42 6 -49 26 -52 19 -3
22 1 22 27 0 16 4 40 9 53 21 58 22 78 3 78 -10 0 -23 -5 -29 -11 -8 -8 -13
-8 -17 0 -4 6 -27 11 -52 11 -37 0 -44 -3 -44 -20 l0 -20 -20 20 c-15 15 -33
20 -69 20 -43 0 -50 -3 -54 -22 l-4 -23 -2 23 c-1 18 -6 23 -23 20 -19 -2 -24
-11 -29 -53 l-6 -50 -1 53 c-2 48 -4 52 -27 52 -19 0 -25 -5 -25 -21 0 -21 0
-21 -18 2 -24 29 -74 30 -105 1 -22 -21 -23 -21 -35 -2 -9 15 -23 20 -57 20
-25 0 -45 -5 -45 -11 0 -5 -10 -3 -22 5 -24 17 -25 17 -48 9z m284 -69 c7 -17
-9 -44 -26 -44 -15 0 -21 30 -8 45 16 19 26 19 34 -1z m256 -9 c0 -18 -5 -25
-20 -25 -21 0 -24 8 -14 34 10 25 34 19 34 -9z"/>
<path d="M3008 1029 c-14 -8 -18 -24 -18 -78 0 -46 4 -70 13 -74 6 -2 51 -5
99 -6 74 -2 88 1 97 16 10 17 10 17 11 1 0 -15 11 -17 78 -17 43 1 86 7 97 14
17 10 24 10 40 -1 10 -8 29 -14 42 -14 22 0 23 3 23 80 l0 80 -35 0 c-22 0
-37 -6 -44 -17 -9 -17 -10 -17 -28 0 -25 22 -108 24 -117 2 -5 -13 -9 -12 -26
5 -26 26 -46 25 -75 -5 -17 -16 -25 -19 -25 -10 0 21 -36 38 -58 26 -11 -6
-24 -6 -33 0 -17 11 -20 11 -41 -2z m347 -75 c0 -10 -8 -20 -17 -22 -18 -3
-26 27 -11 42 12 11 28 0 28 -20z"/>
<path d="M3625 1028 c-11 -6 -23 -16 -27 -22 -5 -7 -8 -4 -8 7 0 11 -8 17 -25
17 -24 0 -25 -2 -25 -74 0 -81 4 -86 66 -86 32 0 34 2 35 38 l2 37 6 -35 c5
-29 10 -35 31 -35 24 0 25 2 24 64 -1 54 -5 67 -24 83 -26 21 -28 21 -55 6z"/>
<path d="M3771 1022 c-19 -15 -22 -25 -19 -82 l3 -65 263 -2 c221 -2 264 0
269 12 4 13 8 13 26 0 25 -17 88 -20 104 -4 8 8 13 8 17 0 4 -6 32 -11 62 -11
l54 0 0 65 c0 53 -4 69 -21 86 -23 23 -65 20 -86 -7 -10 -14 -15 -13 -41 6
-31 23 -71 20 -93 -6 -16 -20 -29 -17 -29 6 0 24 -38 28 -46 5 -4 -10 -10 -12
-18 -6 -22 18 -88 25 -97 10 -6 -10 -9 -11 -9 -1 0 16 -29 15 -63 -3 -25 -13
-30 -13 -44 0 -17 18 -19 18 -43 5 -14 -7 -25 -7 -39 2 -17 10 -23 9 -40 -6
-20 -18 -22 -18 -39 -3 -24 22 -44 21 -71 -1z m613 -61 c3 -4 -1 -17 -9 -27
-10 -15 -16 -16 -26 -7 -6 6 -9 19 -6 27 7 17 32 22 41 7z m-157 -43 c-3 -8
-6 -5 -6 6 -1 11 2 17 5 13 3 -3 4 -12 1 -19z"/>
<path d="M1635 1023 c-11 -3 -103 -30 -205 -60 -102 -30 -195 -58 -208 -60
-13 -3 -28 -15 -33 -27 -11 -26 -79 -393 -86 -462 l-5 -51 188 -162 c104 -89
200 -164 212 -168 37 -9 456 147 471 176 16 29 121 445 121 477 0 16 -4 34 -8
40 -16 24 -409 306 -422 303 -3 -1 -14 -3 -25 -6z m66 -51 c47 -39 -11 -70
-76 -40 -24 11 -33 37 -18 51 13 14 71 6 94 -11z m-285 -77 c50 -21 43 -49
-13 -53 -50 -4 -83 11 -83 38 0 32 41 38 96 15z m411 -20 c24 -21 26 -26 13
-35 -48 -32 -151 16 -113 53 16 16 73 6 100 -18z m-291 -71 c66 -31 26 -79
-48 -58 -43 13 -59 41 -34 60 25 18 40 18 82 -2z m404 -9 c33 -17 41 -54 13
-57 -61 -5 -113 17 -113 48 0 26 57 31 100 9z m-694 -66 c26 -16 34 -27 34
-50 0 -42 -27 -49 -57 -15 -21 24 -33 86 -17 86 4 0 22 -9 40 -21z m430 -32
c25 -22 26 -24 9 -41 -34 -34 -135 6 -119 47 10 26 77 22 110 -6z m-191 -159
c39 -26 46 -37 38 -67 -7 -28 -47 -28 -67 1 -15 21 -23 88 -11 88 3 0 21 -10
40 -22z m-150 -60 c36 -24 45 -54 23 -76 -17 -17 -24 -15 -48 10 -18 19 -29
88 -15 88 3 0 21 -10 40 -22z m-115 -101 c0 -57 -62 -37 -75 24 -10 44 2 51
40 26 26 -16 35 -29 35 -50z m209 -156 c17 -16 31 -34 31 -39 0 -18 -30 -41
-46 -35 -18 7 -44 55 -44 83 0 28 23 25 59 -9z"/>
<path d="M5182 844 c-37 -26 -26 -76 23 -102 18 -10 17 -11 -12 -12 -18 0 -33
-5 -33 -11 0 -6 -20 11 -44 38 -55 61 -91 73 -220 73 l-96 0 0 -200 0 -200 25
-6 c14 -3 25 -10 25 -15 0 -5 20 -9 45 -9 25 0 45 5 45 10 0 14 37 13 42 -1 7
-22 96 0 132 32 39 34 46 35 46 12 1 -21 63 -53 103 -53 25 0 27 3 27 47 l0
47 33 -31 c45 -43 89 -63 137 -63 47 0 95 28 105 61 7 20 7 20 38 -4 69 -52
147 -73 185 -48 17 10 6 54 -19 77 -34 31 -24 44 36 44 48 0 55 3 55 19 0 55
-57 142 -107 166 -58 28 -114 14 -163 -42 -22 -25 -40 -41 -40 -35 0 21 -52
71 -86 82 -48 16 -98 5 -138 -31 -31 -27 -35 -28 -50 -14 -19 20 -19 17 0 58
15 31 15 35 -6 70 -19 31 -47 57 -62 57 -2 0 -14 -7 -26 -16z m-152 -173 c28
-54 -5 -121 -60 -121 -30 0 -30 0 -30 58 0 32 5 63 12 70 19 19 66 15 78 -7z
m455 -91 c3 -5 0 -10 -8 -10 -8 0 -20 -7 -27 -15 -14 -17 -40 -20 -40 -6 0 29
61 54 75 31z m239 -45 c-4 -8 -12 -15 -20 -15 -8 0 -14 7 -14 15 0 8 9 15 20
15 13 0 18 -5 14 -15z"/>
<path d="M3511 822 c-73 -37 -90 -89 -91 -269 l0 -121 30 -7 c17 -4 30 -11 30
-16 0 -6 19 -9 43 -7 42 3 42 3 45 45 2 23 10 47 18 53 18 16 18 60 -1 96 -18
35 -19 80 -2 91 6 4 25 8 40 8 33 0 35 -6 39 -122 2 -64 8 -88 24 -110 45 -61
143 -91 189 -59 34 23 72 28 89 11 12 -12 53 -15 241 -15 218 0 227 1 232 20
6 24 6 24 43 5 39 -20 39 -39 0 -31 -30 5 -30 5 -30 -42 0 -47 0 -48 49 -71
35 -16 58 -21 79 -16 30 6 71 43 91 82 14 28 15 323 1 323 -5 0 -10 11 -10 25
0 24 -3 25 -55 25 l-55 0 -2 -82 c-1 -69 -2 -73 -5 -25 -2 31 -8 57 -13 57 -6
0 -10 11 -10 25 0 24 -3 25 -55 25 -52 0 -55 -1 -55 -25 0 -16 -6 -25 -15 -25
-17 0 -19 9 -5 30 8 13 -8 16 -118 20 -70 3 -205 4 -299 2 l-173 -3 -2 -92
c-2 -76 -2 -81 -5 -29 -3 43 -9 65 -18 69 -8 3 -15 16 -15 29 0 21 -5 24 -35
24 -25 0 -35 4 -35 15 0 31 -30 73 -64 89 -44 21 -73 20 -115 -2z m899 -232
c0 -50 -4 -57 -27 -42 -10 6 -9 17 4 50 9 23 18 42 20 42 1 0 3 -22 3 -50z
m-215 7 c20 -15 17 -48 -9 -82 -15 -20 -15 -20 -16 1 0 13 -8 24 -20 27 -24 6
-26 30 -4 51 19 19 25 20 49 3z m-237 -47 c-5 -17 -14 -33 -19 -36 -14 -8 -11
40 3 54 21 21 27 13 16 -18z"/>
<path d="M2160 692 c0 -150 8 -193 42 -229 44 -47 148 -81 148 -49 0 26 18 27
59 6 43 -21 91 -27 91 -10 0 6 9 10 20 10 11 0 20 -4 20 -10 0 -5 16 -10 35
-10 19 0 35 5 35 10 0 6 11 10 24 10 14 0 28 -4 31 -10 3 -5 22 -10 41 -10
l34 0 0 62 0 63 30 -37 c16 -20 50 -44 75 -54 51 -21 54 -40 6 -38 -31 2 -31
1 -31 -46 0 -48 1 -49 45 -71 39 -20 49 -21 83 -11 21 7 47 21 56 31 26 29 45
89 46 145 l0 49 27 -28 c55 -54 150 -82 191 -56 17 10 6 54 -19 77 -34 31 -24
44 36 44 50 0 55 2 55 23 -1 34 -34 99 -69 134 -37 38 -86 50 -135 33 -37 -12
-96 -73 -96 -100 0 -8 -14 7 -31 33 -49 79 -136 99 -208 48 l-30 -21 -3 22
c-3 20 -9 23 -46 22 -53 -1 -89 -32 -104 -90 l-12 -42 -19 37 c-28 53 -56 80
-98 92 -57 18 -104 4 -150 -43 l-39 -40 0 71 c0 41 -4 71 -10 71 -5 0 -10 11
-10 25 0 24 -3 25 -60 25 l-60 0 0 -138z m319 -154 c-1 -29 -4 -41 -6 -25 -2
15 -11 27 -19 27 -17 0 -18 22 -2 38 22 22 28 13 27 -40z m438 6 c0 -21 -1
-29 -4 -16 -2 12 -11 22 -19 22 -14 0 -19 21 -7 34 15 15 28 -3 30 -40z m287
-9 c-4 -8 -12 -15 -20 -15 -8 0 -14 7 -14 15 0 8 9 15 20 15 13 0 18 -5 14
-15z"/>
<path d="M4680 257 l0 -94 39 -1 c31 -1 44 3 55 20 36 51 9 118 -47 118 -22 0
-27 5 -27 25 0 14 -4 25 -10 25 -6 0 -10 -38 -10 -93z m84 -12 c8 -32 -10 -67
-32 -63 -17 3 -28 47 -18 74 9 24 43 16 50 -11z"/>
<path d="M4960 255 c0 -78 3 -95 15 -95 11 0 15 11 15 40 0 39 1 40 35 40 24
0 35 5 35 15 0 10 -11 15 -35 15 -30 0 -35 3 -35 24 0 22 6 26 45 32 65 9 55
24 -15 24 l-60 0 0 -95z"/>
<path d="M5090 255 c0 -111 17 -128 22 -22 4 82 0 117 -13 117 -5 0 -9 -43 -9
-95z"/>
<path d="M5255 320 c-10 -19 -20 -27 -30 -24 -12 5 -15 -4 -15 -44 0 -32 -5
-54 -15 -62 -26 -21 -45 5 -45 61 0 27 -4 49 -10 49 -6 0 -10 -28 -10 -64 0
-71 5 -76 68 -74 l32 1 0 59 c0 37 4 57 10 53 6 -3 10 -31 10 -61 0 -41 4 -54
15 -54 12 0 15 13 15 55 0 30 5 55 10 55 6 0 10 -25 10 -55 0 -42 3 -55 15
-55 12 0 15 13 15 55 0 30 5 55 10 55 6 0 10 7 10 15 0 8 -4 15 -10 15 -5 0
-10 7 -10 15 0 8 7 15 15 15 8 0 15 4 15 9 0 5 -20 9 -45 9 -40 0 -47 -3 -60
-28z m45 -5 c0 -8 -4 -15 -10 -15 -5 0 -10 7 -10 15 0 8 5 15 10 15 6 0 10 -7
10 -15z"/>
<path d="M5597 332 c-32 -35 -13 -69 48 -89 51 -17 43 -72 -9 -59 -13 3 -28
15 -31 26 -8 26 -25 26 -25 1 0 -46 79 -70 115 -35 29 30 15 67 -35 91 -29 14
-45 28 -45 40 0 31 37 25 78 -11 33 -30 37 -40 37 -80 0 -33 5 -48 15 -53 21
-7 32 4 17 19 -18 18 -16 88 2 88 11 0 16 -15 18 -52 l3 -53 48 -1 47 -1 0 59
c0 37 4 57 10 53 6 -3 10 -31 10 -61 0 -41 4 -54 15 -54 12 0 15 13 15 55 0
30 5 55 10 55 6 0 10 -25 10 -55 0 -42 3 -55 15 -55 12 0 15 13 15 55 0 30 5
55 10 55 6 0 10 7 10 15 0 8 -4 15 -10 15 -5 0 -10 7 -10 15 0 8 7 15 15 15 8
0 15 4 15 10 0 5 -21 8 -47 7 -39 -2 -50 -6 -60 -27 -7 -14 -19 -24 -28 -22
-12 2 -15 -8 -15 -46 0 -32 -5 -54 -15 -62 -26 -21 -45 5 -45 61 0 27 -4 49
-10 49 -5 0 -10 -5 -10 -11 0 -16 -27 14 -33 37 -5 18 -5 17 -12 -3 -9 -30
-19 -29 -39 2 -20 31 -74 34 -99 7z m353 -17 c0 -8 -4 -15 -10 -15 -5 0 -10 7
-10 15 0 8 5 15 10 15 6 0 10 -7 10 -15z"/>
<path d="M4796 273 c4 -15 13 -43 20 -62 19 -45 18 -81 -1 -81 -8 0 -15 -4
-15 -10 0 -5 9 -10 20 -10 21 0 37 30 64 121 19 65 19 69 7 69 -5 0 -17 -23
-27 -51 l-18 -50 -16 47 c-18 53 -46 76 -34 27z"/>
<path d="M5410 228 c0 -39 4 -68 10 -68 6 0 10 22 10 50 0 39 4 51 20 60 17 9
22 7 30 -15 6 -15 10 -42 10 -61 0 -19 5 -34 10 -34 15 0 12 115 -2 128 -7 6
-30 10 -50 9 l-38 -1 0 -68z"/>
</g>
</svg>
